<mxfile host="app.diagrams.net" agent="Mozilla/5.0 (Windows NT 10.0; Win64; x64) AppleWebKit/537.36 (KHTML, like Gecko) Chrome/127.0.0.0 Safari/537.36" version="24.7.7">
  <diagram name="Page-1" id="oo9iOd9erzDcSliGqVQg">
    <mxGraphModel dx="1434" dy="728" grid="1" gridSize="10" guides="1" tooltips="1" connect="1" arrows="1" fold="1" page="1" pageScale="1" pageWidth="850" pageHeight="1100" math="0" shadow="0">
      <root>
        <mxCell id="0" />
        <mxCell id="1" parent="0" />
        <mxCell id="jzimIxDsLg7USPqvKQ8o-1" value="Worker" style="swimlane;fontStyle=1;align=center;verticalAlign=top;childLayout=stackLayout;horizontal=1;startSize=26;horizontalStack=0;resizeParent=1;resizeParentMax=0;resizeLast=0;collapsible=1;marginBottom=0;whiteSpace=wrap;html=1;" vertex="1" parent="1">
          <mxGeometry x="130" y="120" width="160" height="200" as="geometry" />
        </mxCell>
        <mxCell id="jzimIxDsLg7USPqvKQ8o-2" value="-Name&lt;div&gt;-Id&lt;/div&gt;&lt;div&gt;-Department&lt;/div&gt;&lt;div&gt;-Salary&lt;/div&gt;" style="text;strokeColor=none;fillColor=none;align=left;verticalAlign=top;spacingLeft=4;spacingRight=4;overflow=hidden;rotatable=0;points=[[0,0.5],[1,0.5]];portConstraint=eastwest;whiteSpace=wrap;html=1;" vertex="1" parent="jzimIxDsLg7USPqvKQ8o-1">
          <mxGeometry y="26" width="160" height="74" as="geometry" />
        </mxCell>
        <mxCell id="jzimIxDsLg7USPqvKQ8o-3" value="" style="line;strokeWidth=1;fillColor=none;align=left;verticalAlign=middle;spacingTop=-1;spacingLeft=3;spacingRight=3;rotatable=0;labelPosition=right;points=[];portConstraint=eastwest;strokeColor=inherit;" vertex="1" parent="jzimIxDsLg7USPqvKQ8o-1">
          <mxGeometry y="100" width="160" height="8" as="geometry" />
        </mxCell>
        <mxCell id="jzimIxDsLg7USPqvKQ8o-4" value="+view_profile()&lt;div&gt;+view_payslip()&lt;/div&gt;&lt;div&gt;+Request_leave()&lt;/div&gt;&lt;div&gt;+Punch_in()&lt;/div&gt;&lt;div&gt;+punch_out()&lt;/div&gt;" style="text;strokeColor=none;fillColor=none;align=left;verticalAlign=top;spacingLeft=4;spacingRight=4;overflow=hidden;rotatable=0;points=[[0,0.5],[1,0.5]];portConstraint=eastwest;whiteSpace=wrap;html=1;" vertex="1" parent="jzimIxDsLg7USPqvKQ8o-1">
          <mxGeometry y="108" width="160" height="92" as="geometry" />
        </mxCell>
        <mxCell id="jzimIxDsLg7USPqvKQ8o-5" value="Executive_secretary" style="swimlane;fontStyle=1;align=center;verticalAlign=top;childLayout=stackLayout;horizontal=1;startSize=26;horizontalStack=0;resizeParent=1;resizeParentMax=0;resizeLast=0;collapsible=1;marginBottom=0;whiteSpace=wrap;html=1;" vertex="1" parent="1">
          <mxGeometry x="370" y="130" width="210" height="170" as="geometry" />
        </mxCell>
        <mxCell id="jzimIxDsLg7USPqvKQ8o-6" value="+Name&lt;div&gt;+Id&lt;/div&gt;&lt;div&gt;+Years of Experience&lt;/div&gt;&lt;div&gt;+Email_id&lt;/div&gt;" style="text;strokeColor=none;fillColor=none;align=left;verticalAlign=top;spacingLeft=4;spacingRight=4;overflow=hidden;rotatable=0;points=[[0,0.5],[1,0.5]];portConstraint=eastwest;whiteSpace=wrap;html=1;" vertex="1" parent="jzimIxDsLg7USPqvKQ8o-5">
          <mxGeometry y="26" width="210" height="64" as="geometry" />
        </mxCell>
        <mxCell id="jzimIxDsLg7USPqvKQ8o-7" value="" style="line;strokeWidth=1;fillColor=none;align=left;verticalAlign=middle;spacingTop=-1;spacingLeft=3;spacingRight=3;rotatable=0;labelPosition=right;points=[];portConstraint=eastwest;strokeColor=inherit;" vertex="1" parent="jzimIxDsLg7USPqvKQ8o-5">
          <mxGeometry y="90" width="210" height="8" as="geometry" />
        </mxCell>
        <mxCell id="jzimIxDsLg7USPqvKQ8o-8" value="+view_all_employees_profile()&lt;div&gt;+Add employees Information()&lt;/div&gt;&lt;div&gt;+View_employees_payslip_profile()&lt;/div&gt;" style="text;strokeColor=none;fillColor=none;align=left;verticalAlign=top;spacingLeft=4;spacingRight=4;overflow=hidden;rotatable=0;points=[[0,0.5],[1,0.5]];portConstraint=eastwest;whiteSpace=wrap;html=1;" vertex="1" parent="jzimIxDsLg7USPqvKQ8o-5">
          <mxGeometry y="98" width="210" height="72" as="geometry" />
        </mxCell>
        <mxCell id="jzimIxDsLg7USPqvKQ8o-9" value="President" style="swimlane;fontStyle=1;align=center;verticalAlign=top;childLayout=stackLayout;horizontal=1;startSize=26;horizontalStack=0;resizeParent=1;resizeParentMax=0;resizeLast=0;collapsible=1;marginBottom=0;whiteSpace=wrap;html=1;" vertex="1" parent="1">
          <mxGeometry x="620" y="700" width="160" height="150" as="geometry" />
        </mxCell>
        <mxCell id="jzimIxDsLg7USPqvKQ8o-10" value="-Name&lt;div&gt;-Id&lt;/div&gt;&lt;div&gt;-Designation&lt;/div&gt;&lt;div&gt;-Year_of_joining&lt;/div&gt;" style="text;strokeColor=none;fillColor=none;align=left;verticalAlign=top;spacingLeft=4;spacingRight=4;overflow=hidden;rotatable=0;points=[[0,0.5],[1,0.5]];portConstraint=eastwest;whiteSpace=wrap;html=1;" vertex="1" parent="jzimIxDsLg7USPqvKQ8o-9">
          <mxGeometry y="26" width="160" height="74" as="geometry" />
        </mxCell>
        <mxCell id="jzimIxDsLg7USPqvKQ8o-11" value="" style="line;strokeWidth=1;fillColor=none;align=left;verticalAlign=middle;spacingTop=-1;spacingLeft=3;spacingRight=3;rotatable=0;labelPosition=right;points=[];portConstraint=eastwest;strokeColor=inherit;" vertex="1" parent="jzimIxDsLg7USPqvKQ8o-9">
          <mxGeometry y="100" width="160" height="8" as="geometry" />
        </mxCell>
        <mxCell id="jzimIxDsLg7USPqvKQ8o-12" value="+Request_leave()&lt;div&gt;-prepare_cheque()&lt;/div&gt;" style="text;strokeColor=none;fillColor=none;align=left;verticalAlign=top;spacingLeft=4;spacingRight=4;overflow=hidden;rotatable=0;points=[[0,0.5],[1,0.5]];portConstraint=eastwest;whiteSpace=wrap;html=1;" vertex="1" parent="jzimIxDsLg7USPqvKQ8o-9">
          <mxGeometry y="108" width="160" height="42" as="geometry" />
        </mxCell>
        <mxCell id="jzimIxDsLg7USPqvKQ8o-13" value="System" style="swimlane;fontStyle=1;align=center;verticalAlign=top;childLayout=stackLayout;horizontal=1;startSize=26;horizontalStack=0;resizeParent=1;resizeParentMax=0;resizeLast=0;collapsible=1;marginBottom=0;whiteSpace=wrap;html=1;" vertex="1" parent="1">
          <mxGeometry x="580" y="380" width="160" height="130" as="geometry" />
        </mxCell>
        <mxCell id="jzimIxDsLg7USPqvKQ8o-14" value="+Model" style="text;strokeColor=none;fillColor=none;align=left;verticalAlign=top;spacingLeft=4;spacingRight=4;overflow=hidden;rotatable=0;points=[[0,0.5],[1,0.5]];portConstraint=eastwest;whiteSpace=wrap;html=1;" vertex="1" parent="jzimIxDsLg7USPqvKQ8o-13">
          <mxGeometry y="26" width="160" height="26" as="geometry" />
        </mxCell>
        <mxCell id="jzimIxDsLg7USPqvKQ8o-15" value="" style="line;strokeWidth=1;fillColor=none;align=left;verticalAlign=middle;spacingTop=-1;spacingLeft=3;spacingRight=3;rotatable=0;labelPosition=right;points=[];portConstraint=eastwest;strokeColor=inherit;" vertex="1" parent="jzimIxDsLg7USPqvKQ8o-13">
          <mxGeometry y="52" width="160" height="8" as="geometry" />
        </mxCell>
        <mxCell id="jzimIxDsLg7USPqvKQ8o-16" value="-calculate employees salary()&lt;div&gt;-Track employees attendance()&lt;/div&gt;" style="text;strokeColor=none;fillColor=none;align=left;verticalAlign=top;spacingLeft=4;spacingRight=4;overflow=hidden;rotatable=0;points=[[0,0.5],[1,0.5]];portConstraint=eastwest;whiteSpace=wrap;html=1;" vertex="1" parent="jzimIxDsLg7USPqvKQ8o-13">
          <mxGeometry y="60" width="160" height="70" as="geometry" />
        </mxCell>
        <mxCell id="jzimIxDsLg7USPqvKQ8o-17" value="Salary" style="swimlane;fontStyle=1;align=center;verticalAlign=top;childLayout=stackLayout;horizontal=1;startSize=26;horizontalStack=0;resizeParent=1;resizeParentMax=0;resizeLast=0;collapsible=1;marginBottom=0;whiteSpace=wrap;html=1;" vertex="1" parent="1">
          <mxGeometry x="310" y="460" width="160" height="160" as="geometry" />
        </mxCell>
        <mxCell id="jzimIxDsLg7USPqvKQ8o-18" value="-salary_id&lt;div&gt;-salary_type&lt;/div&gt;&lt;div&gt;-salary_description&lt;/div&gt;" style="text;strokeColor=none;fillColor=none;align=left;verticalAlign=top;spacingLeft=4;spacingRight=4;overflow=hidden;rotatable=0;points=[[0,0.5],[1,0.5]];portConstraint=eastwest;whiteSpace=wrap;html=1;" vertex="1" parent="jzimIxDsLg7USPqvKQ8o-17">
          <mxGeometry y="26" width="160" height="54" as="geometry" />
        </mxCell>
        <mxCell id="jzimIxDsLg7USPqvKQ8o-19" value="" style="line;strokeWidth=1;fillColor=none;align=left;verticalAlign=middle;spacingTop=-1;spacingLeft=3;spacingRight=3;rotatable=0;labelPosition=right;points=[];portConstraint=eastwest;strokeColor=inherit;" vertex="1" parent="jzimIxDsLg7USPqvKQ8o-17">
          <mxGeometry y="80" width="160" height="8" as="geometry" />
        </mxCell>
        <mxCell id="jzimIxDsLg7USPqvKQ8o-20" value="+credit_salary()&lt;div&gt;+increment_salary()&lt;/div&gt;&lt;div&gt;+decrement_salary()&lt;/div&gt;&lt;div&gt;+give_bonus()&lt;/div&gt;" style="text;strokeColor=none;fillColor=none;align=left;verticalAlign=top;spacingLeft=4;spacingRight=4;overflow=hidden;rotatable=0;points=[[0,0.5],[1,0.5]];portConstraint=eastwest;whiteSpace=wrap;html=1;" vertex="1" parent="jzimIxDsLg7USPqvKQ8o-17">
          <mxGeometry y="88" width="160" height="72" as="geometry" />
        </mxCell>
        <mxCell id="jzimIxDsLg7USPqvKQ8o-26" value="1" style="text;html=1;align=center;verticalAlign=middle;resizable=0;points=[];autosize=1;strokeColor=none;fillColor=none;" vertex="1" parent="1">
          <mxGeometry x="175" y="328" width="30" height="30" as="geometry" />
        </mxCell>
        <mxCell id="jzimIxDsLg7USPqvKQ8o-27" value="1" style="text;html=1;align=center;verticalAlign=middle;resizable=0;points=[];autosize=1;strokeColor=none;fillColor=none;" vertex="1" parent="1">
          <mxGeometry x="175" y="568" width="30" height="30" as="geometry" />
        </mxCell>
        <mxCell id="jzimIxDsLg7USPqvKQ8o-28" value="" style="endArrow=none;html=1;rounded=0;entryX=0.629;entryY=1.014;entryDx=0;entryDy=0;entryPerimeter=0;" edge="1" parent="1" target="jzimIxDsLg7USPqvKQ8o-8">
          <mxGeometry width="50" height="50" relative="1" as="geometry">
            <mxPoint x="680" y="300" as="sourcePoint" />
            <mxPoint x="400" y="301" as="targetPoint" />
          </mxGeometry>
        </mxCell>
        <mxCell id="jzimIxDsLg7USPqvKQ8o-29" value="" style="endArrow=none;html=1;rounded=0;entryX=0.394;entryY=-0.013;entryDx=0;entryDy=0;entryPerimeter=0;exitX=0.631;exitY=1.029;exitDx=0;exitDy=0;exitPerimeter=0;" edge="1" parent="1" source="jzimIxDsLg7USPqvKQ8o-16" target="jzimIxDsLg7USPqvKQ8o-9">
          <mxGeometry width="50" height="50" relative="1" as="geometry">
            <mxPoint x="400" y="400" as="sourcePoint" />
            <mxPoint x="450" y="350" as="targetPoint" />
          </mxGeometry>
        </mxCell>
        <mxCell id="jzimIxDsLg7USPqvKQ8o-33" value="" style="endArrow=classic;html=1;rounded=0;entryX=1.006;entryY=0.662;entryDx=0;entryDy=0;entryPerimeter=0;exitX=0.024;exitY=0.641;exitDx=0;exitDy=0;exitPerimeter=0;" edge="1" parent="1" source="jzimIxDsLg7USPqvKQ8o-6" target="jzimIxDsLg7USPqvKQ8o-2">
          <mxGeometry width="50" height="50" relative="1" as="geometry">
            <mxPoint x="400" y="500" as="sourcePoint" />
            <mxPoint x="450" y="450" as="targetPoint" />
          </mxGeometry>
        </mxCell>
        <mxCell id="jzimIxDsLg7USPqvKQ8o-34" value="Taxes" style="swimlane;fontStyle=1;align=center;verticalAlign=top;childLayout=stackLayout;horizontal=1;startSize=26;horizontalStack=0;resizeParent=1;resizeParentMax=0;resizeLast=0;collapsible=1;marginBottom=0;whiteSpace=wrap;html=1;" vertex="1" parent="1">
          <mxGeometry x="60" y="500" width="160" height="130" as="geometry" />
        </mxCell>
        <mxCell id="jzimIxDsLg7USPqvKQ8o-35" value="-amount&lt;div&gt;-calculation&lt;/div&gt;" style="text;strokeColor=none;fillColor=none;align=left;verticalAlign=top;spacingLeft=4;spacingRight=4;overflow=hidden;rotatable=0;points=[[0,0.5],[1,0.5]];portConstraint=eastwest;whiteSpace=wrap;html=1;" vertex="1" parent="jzimIxDsLg7USPqvKQ8o-34">
          <mxGeometry y="26" width="160" height="44" as="geometry" />
        </mxCell>
        <mxCell id="jzimIxDsLg7USPqvKQ8o-36" value="" style="line;strokeWidth=1;fillColor=none;align=left;verticalAlign=middle;spacingTop=-1;spacingLeft=3;spacingRight=3;rotatable=0;labelPosition=right;points=[];portConstraint=eastwest;strokeColor=inherit;" vertex="1" parent="jzimIxDsLg7USPqvKQ8o-34">
          <mxGeometry y="70" width="160" height="8" as="geometry" />
        </mxCell>
        <mxCell id="jzimIxDsLg7USPqvKQ8o-37" value="+calculate()&lt;div&gt;+update()&lt;/div&gt;" style="text;strokeColor=none;fillColor=none;align=left;verticalAlign=top;spacingLeft=4;spacingRight=4;overflow=hidden;rotatable=0;points=[[0,0.5],[1,0.5]];portConstraint=eastwest;whiteSpace=wrap;html=1;" vertex="1" parent="jzimIxDsLg7USPqvKQ8o-34">
          <mxGeometry y="78" width="160" height="52" as="geometry" />
        </mxCell>
        <mxCell id="jzimIxDsLg7USPqvKQ8o-38" value="" style="endArrow=diamondThin;endFill=1;endSize=24;html=1;rounded=0;entryX=0.175;entryY=0.978;entryDx=0;entryDy=0;entryPerimeter=0;exitX=0.581;exitY=0.031;exitDx=0;exitDy=0;exitPerimeter=0;" edge="1" parent="1" source="jzimIxDsLg7USPqvKQ8o-34" target="jzimIxDsLg7USPqvKQ8o-4">
          <mxGeometry width="160" relative="1" as="geometry">
            <mxPoint x="340" y="480" as="sourcePoint" />
            <mxPoint x="500" y="480" as="targetPoint" />
          </mxGeometry>
        </mxCell>
        <mxCell id="jzimIxDsLg7USPqvKQ8o-39" value="" style="endArrow=none;html=1;rounded=0;entryX=0;entryY=0.5;entryDx=0;entryDy=0;" edge="1" parent="1" target="jzimIxDsLg7USPqvKQ8o-10">
          <mxGeometry width="50" height="50" relative="1" as="geometry">
            <mxPoint x="380" y="760" as="sourcePoint" />
            <mxPoint x="450" y="650" as="targetPoint" />
          </mxGeometry>
        </mxCell>
        <mxCell id="jzimIxDsLg7USPqvKQ8o-41" value="1" style="text;html=1;align=center;verticalAlign=middle;resizable=0;points=[];autosize=1;strokeColor=none;fillColor=none;" vertex="1" parent="1">
          <mxGeometry x="345" y="168" width="30" height="30" as="geometry" />
        </mxCell>
        <mxCell id="jzimIxDsLg7USPqvKQ8o-42" value="*" style="text;html=1;align=center;verticalAlign=middle;resizable=0;points=[];autosize=1;strokeColor=none;fillColor=none;" vertex="1" parent="1">
          <mxGeometry x="285" y="158" width="30" height="30" as="geometry" />
        </mxCell>
        <mxCell id="jzimIxDsLg7USPqvKQ8o-43" value="" style="endArrow=none;html=1;rounded=0;entryX=0.314;entryY=1;entryDx=0;entryDy=0;entryPerimeter=0;exitX=0.787;exitY=0;exitDx=0;exitDy=0;exitPerimeter=0;" edge="1" parent="1" source="jzimIxDsLg7USPqvKQ8o-17" target="jzimIxDsLg7USPqvKQ8o-8">
          <mxGeometry width="50" height="50" relative="1" as="geometry">
            <mxPoint x="400" y="500" as="sourcePoint" />
            <mxPoint x="450" y="450" as="targetPoint" />
          </mxGeometry>
        </mxCell>
        <mxCell id="jzimIxDsLg7USPqvKQ8o-47" value="" style="endArrow=none;html=1;rounded=0;" edge="1" parent="1">
          <mxGeometry width="50" height="50" relative="1" as="geometry">
            <mxPoint x="395" y="400" as="sourcePoint" />
            <mxPoint x="395" y="300" as="targetPoint" />
          </mxGeometry>
        </mxCell>
        <mxCell id="jzimIxDsLg7USPqvKQ8o-48" value="" style="endArrow=none;html=1;rounded=0;" edge="1" parent="1">
          <mxGeometry width="50" height="50" relative="1" as="geometry">
            <mxPoint x="230" y="400" as="sourcePoint" />
            <mxPoint x="400" y="400" as="targetPoint" />
          </mxGeometry>
        </mxCell>
        <mxCell id="jzimIxDsLg7USPqvKQ8o-49" value="" style="endArrow=none;html=1;rounded=0;exitX=0.813;exitY=-0.031;exitDx=0;exitDy=0;exitPerimeter=0;" edge="1" parent="1" source="jzimIxDsLg7USPqvKQ8o-34">
          <mxGeometry width="50" height="50" relative="1" as="geometry">
            <mxPoint x="400" y="500" as="sourcePoint" />
            <mxPoint x="230" y="400" as="targetPoint" />
          </mxGeometry>
        </mxCell>
        <mxCell id="jzimIxDsLg7USPqvKQ8o-50" value="1" style="text;html=1;align=center;verticalAlign=middle;resizable=0;points=[];autosize=1;strokeColor=none;fillColor=none;" vertex="1" parent="1">
          <mxGeometry x="535" y="298" width="30" height="30" as="geometry" />
        </mxCell>
        <mxCell id="jzimIxDsLg7USPqvKQ8o-51" value="*" style="text;html=1;align=center;verticalAlign=middle;resizable=0;points=[];autosize=1;strokeColor=none;fillColor=none;" vertex="1" parent="1">
          <mxGeometry x="625" y="358" width="30" height="30" as="geometry" />
        </mxCell>
        <mxCell id="jzimIxDsLg7USPqvKQ8o-52" value="1" style="text;html=1;align=center;verticalAlign=middle;resizable=0;points=[];autosize=1;strokeColor=none;fillColor=none;" vertex="1" parent="1">
          <mxGeometry x="675" y="728" width="30" height="30" as="geometry" />
        </mxCell>
        <mxCell id="jzimIxDsLg7USPqvKQ8o-53" value="1" style="text;html=1;align=center;verticalAlign=middle;resizable=0;points=[];autosize=1;strokeColor=none;fillColor=none;" vertex="1" parent="1">
          <mxGeometry x="685" y="518" width="30" height="30" as="geometry" />
        </mxCell>
        <mxCell id="jzimIxDsLg7USPqvKQ8o-54" value="1" style="text;html=1;align=center;verticalAlign=middle;resizable=0;points=[];autosize=1;strokeColor=none;fillColor=none;" vertex="1" parent="1">
          <mxGeometry x="575" y="788" width="30" height="30" as="geometry" />
        </mxCell>
        <mxCell id="jzimIxDsLg7USPqvKQ8o-55" value="1" style="text;html=1;align=center;verticalAlign=middle;resizable=0;points=[];autosize=1;strokeColor=none;fillColor=none;" vertex="1" parent="1">
          <mxGeometry x="385" y="628" width="30" height="30" as="geometry" />
        </mxCell>
        <mxCell id="jzimIxDsLg7USPqvKQ8o-56" value="" style="endArrow=none;html=1;rounded=0;exitX=0.638;exitY=-0.015;exitDx=0;exitDy=0;exitPerimeter=0;" edge="1" parent="1" source="jzimIxDsLg7USPqvKQ8o-13">
          <mxGeometry width="50" height="50" relative="1" as="geometry">
            <mxPoint x="400" y="500" as="sourcePoint" />
            <mxPoint x="680" y="300" as="targetPoint" />
          </mxGeometry>
        </mxCell>
        <mxCell id="jzimIxDsLg7USPqvKQ8o-57" value="" style="endArrow=none;html=1;rounded=0;entryX=0.438;entryY=1.028;entryDx=0;entryDy=0;entryPerimeter=0;" edge="1" parent="1" target="jzimIxDsLg7USPqvKQ8o-20">
          <mxGeometry width="50" height="50" relative="1" as="geometry">
            <mxPoint x="380" y="760" as="sourcePoint" />
            <mxPoint x="450" y="650" as="targetPoint" />
          </mxGeometry>
        </mxCell>
      </root>
    </mxGraphModel>
  </diagram>
</mxfile>
